<svg width="400" height="204" viewBox="0 0 400 204" fill="none" xmlns="http://www.w3.org/2000/svg">
<path d="M209.213 194.919C204.387 195.34 199.768 196.276 195.224 195.995C187.312 195.507 179.331 194.811 171.592 193.19C164.206 191.643 161.061 185.601 162.386 178.083C163.503 171.748 166.478 166.344 170.806 161.718C173.196 159.163 175.99 156.987 178.566 154.602C178.99 154.21 179.23 153.62 179.554 153.121C179.439 152.898 179.323 152.675 179.207 152.453C175.865 153.641 172.525 154.837 169.179 156.016C156.584 160.456 144.006 164.945 131.385 169.311C118.762 173.679 106.126 178.014 93.437 182.187C84.779 185.035 76.0531 187.688 67.3008 190.234C56.0386 193.509 44.767 196.774 33.4096 199.693C24.3922 202.011 15.2627 203.965 5.83279 203.548C0.733876 203.323 -0.997606 200.687 0.542528 195.774C2.01287 191.084 5.3923 187.766 8.67543 184.486C20.2327 172.938 33.4371 163.433 47.078 154.562C58.3534 147.23 69.8743 140.273 81.3214 133.207C85.5228 130.613 90.173 128.64 92.9877 124.25C95.4919 120.343 96.9079 116.24 96.2964 111.449C94.2818 95.6637 95.5718 80.0591 100.996 65.1364C108.465 44.5909 121.534 28.1306 139.836 16.0556C156.173 5.27618 174.149 -0.00990115 193.814 1.3922e-05C208.883 0.00760506 223.203 2.84244 236.8 9.30023C249.543 15.3525 260.436 23.8948 269.527 34.6016C273.267 39.0069 277.44 39.9563 282.529 38.2161C293.187 34.5715 303.776 30.7219 314.454 27.1389C321.564 24.7532 328.727 22.492 335.96 20.5186C345.457 17.9276 354.991 15.4214 364.611 13.3519C373.164 11.5118 381.784 9.60905 390.667 10.5541C393.742 10.8813 396.951 11.1658 398.861 14.0048C401.154 17.4149 399.573 20.703 397.726 23.6107C392.61 31.6646 385.476 37.8413 378.072 43.6552C358.283 59.1955 336.976 72.4548 315.238 85.0493C310.631 87.7189 305.981 90.3165 301.393 93.0195C296.007 96.1928 292.931 100.999 291.774 107.08C290.71 112.675 289.92 118.334 288.591 123.863C284.919 139.141 277.264 152.32 266.755 163.888C255.143 176.671 241.121 185.869 224.749 191.303C219.799 192.946 214.56 193.716 209.213 194.919ZM302.916 79.5849C303.341 79.2394 303.766 78.8939 304.462 78.3771C304.718 78.1842 304.975 77.9914 305.581 77.8597C306.289 77.2623 306.997 76.6649 307.892 75.9819C307.892 75.9819 308.034 75.8321 308.388 75.8782C308.794 75.4928 309.2 75.1074 309.647 74.7518C309.647 74.7518 309.633 74.7031 309.993 74.7261C310.488 74.2505 310.983 73.7748 311.661 73.1985C311.661 73.1985 311.805 73.047 312.146 73.1C312.449 72.7865 312.753 72.4731 313.322 72.0288C313.545 71.8345 313.769 71.6401 314.343 71.4964C314.735 71.1137 315.127 70.7309 315.761 70.2058C315.901 70.0824 316.041 69.959 316.526 69.8753C316.822 69.5511 317.117 69.227 317.684 68.7828C317.909 68.5941 318.135 68.4054 318.704 68.2401C319 67.9192 319.297 67.5984 319.793 67.1815C319.793 67.1815 319.931 67.0073 320.274 66.9993C320.717 66.5018 321.16 66.0043 321.836 65.3769C321.978 65.2654 322.092 65.1302 322.55 64.9723C323.849 63.6908 325.148 62.4093 326.665 60.9671C326.804 60.8515 326.933 60.7251 327.401 60.6219C327.662 60.2707 327.923 59.9194 328.447 59.4007C328.714 59.0839 328.981 58.767 329.605 58.4606C329.829 58.0866 330.053 57.7125 330.521 57.1347C330.804 56.821 331.088 56.5073 331.735 56.1508C332.866 54.3659 333.996 52.5809 335.363 50.528C335.553 49.9643 335.743 49.4006 336.307 48.7295C336.397 48.1311 336.487 47.5328 336.663 46.541C336.145 45.1076 335.627 43.6741 335.126 41.8807C334.593 41.6602 334.06 41.4398 333.526 41.1656C333.526 41.1656 333.472 41.1705 333.418 40.8164C332.896 40.6572 332.374 40.4979 331.467 40.2075C330.546 40.0182 329.624 39.8289 328.4 39.3381C327.555 39.3192 326.709 39.3004 325.48 39.2111C322.576 39.2655 319.671 39.32 316.538 39.1749C316.071 39.2898 315.605 39.4047 314.699 39.5302C313.972 39.5866 313.244 39.6429 312.057 39.559C310.119 39.9989 308.182 40.4388 305.799 40.8796C304.784 41.0855 303.77 41.2914 302.343 41.2944C300.997 41.6517 299.651 42.0091 297.964 42.3788C297.748 42.4489 297.532 42.519 296.89 42.4548C291.294 43.6884 285.694 44.9054 280.103 46.1673C278.688 46.4868 278.302 47.2484 279.523 48.6889C279.633 48.857 279.743 49.025 279.854 49.5962C281.153 52.2793 282.451 54.9623 283.889 57.9841C284.097 58.2859 284.304 58.5876 284.395 59.2659C284.935 60.5333 285.474 61.8007 286.139 63.4481C286.801 65.3872 287.463 67.3264 288.034 69.6983C288.414 71.2073 288.794 72.7162 289.128 74.5957C289.129 74.8446 289.131 75.0934 288.89 75.6821C288.524 77.7876 288.157 79.8931 287.603 82.3142C287.125 83.0177 286.646 83.7212 285.836 84.5169C285.676 84.9234 285.515 85.3299 285.106 85.9493C284.748 86.3589 284.389 86.7686 283.673 87.233C283.236 87.9389 282.798 88.6447 282.06 89.5245C281.137 90.4373 280.214 91.35 278.928 92.2809C278.102 93.0419 277.276 93.8029 276.45 94.5639C276.578 94.7887 276.706 95.0134 276.834 95.2382C277.457 94.9716 278.08 94.705 279.062 94.319C279.816 93.9039 280.569 93.4888 281.662 93.157C281.972 92.8583 282.281 92.5596 282.917 92.093C284.735 90.9409 286.552 89.7888 288.699 88.7689C289.024 88.4883 289.35 88.2076 289.873 87.8267C289.873 87.8267 290.036 87.6775 290.39 87.7396C290.832 87.4008 291.274 87.0619 291.748 86.7495C291.748 86.7495 291.722 86.7169 292.091 86.6965C292.721 86.1867 293.352 85.677 294.184 85.0512C294.184 85.0512 294.371 84.9117 294.705 85.0052C295.034 84.723 295.363 84.4408 295.883 84.0608C295.883 84.0608 296.03 83.9053 296.383 83.9372C296.813 83.5923 297.242 83.2474 297.947 82.7141C298.399 82.3941 298.852 82.0742 299.653 81.821C299.953 81.501 300.253 81.181 300.751 80.768C300.751 80.768 300.921 80.6296 301.269 80.6938C301.69 80.3343 302.112 79.9749 302.575 79.6342C302.575 79.6342 302.562 79.5906 302.916 79.5849ZM197.038 136.204C200.534 134.551 204.059 132.955 207.522 131.236C222.662 123.718 237.756 116.107 252.932 108.664C256.651 106.84 258.256 104.012 258.417 100.073C258.713 92.7743 258.129 85.4971 255.857 78.5968C248.037 54.8468 231.731 40.0378 207.398 34.501C196.109 31.9322 184.66 32.6465 173.672 36.3823C158.717 41.4667 146.987 50.7765 138.568 64.2865C132.424 74.1452 129.433 84.8911 129.048 96.3464C128.807 103.512 129.755 110.629 132.071 117.491C136.61 130.934 144.067 141.724 158.609 145.609C165.149 147.356 172.132 145.973 176.811 140.313C180.686 135.626 183.55 130.321 184.909 124.521C187.505 113.441 189.494 102.217 191.696 91.0455C191.968 89.6665 191.586 87.9746 193.806 87.9558C195.837 87.9386 195.707 89.5185 195.933 90.8086C197.573 100.166 199.041 109.558 200.884 118.875C202.185 125.447 201.419 131.085 195.148 135.165C192.944 136.58 190.74 137.994 188.537 139.409C188.722 139.733 188.907 140.058 189.092 140.383C191.616 139.029 194.141 137.676 197.038 136.204ZM69.4313 157.215C67.9853 159.264 66.3816 161.222 65.126 163.382C62.5083 167.886 63.4235 171.799 67.6651 173.556C69.6043 174.359 71.8877 174.524 74.0301 174.612C87.3341 175.159 99.9865 171.638 112.587 168.067C121.213 165.622 129.715 162.737 138.272 160.048C137.394 159.529 136.54 159.477 135.695 159.539C132.096 159.803 128.504 160.234 124.901 160.352C120.746 160.489 117.498 158.623 114.964 155.34C109.973 148.875 105.964 141.872 103.015 134.25C101.306 129.832 101.289 129.891 97.3641 132.762C87.4399 140.02 77.7921 147.589 69.4313 157.215ZM217.165 135.894C215.22 136.833 213.165 137.608 211.388 138.798C210.747 139.227 210.246 140.942 210.591 141.575C212.01 144.177 214.172 145.977 217.228 146.653C221.72 147.648 226.048 146.893 230.32 145.642C240.307 142.718 247.047 135.941 251.821 127.014C253.314 124.223 254.384 121.205 255.647 118.292C255.405 118.103 255.163 117.914 254.921 117.725C242.467 123.743 230.013 129.762 217.165 135.894Z" fill="black"/>
<path d="M279.854 49.3948C281.204 51.8805 282.555 54.5677 283.828 57.4503C282.451 54.9625 281.153 52.2794 279.854 49.3948Z" fill="black"/>
<path d="M289.011 75.5125C288.786 77.4973 288.441 79.6521 287.943 81.9029C288.157 79.8934 288.524 77.7879 289.011 75.5125Z" fill="black"/>
<path d="M312.287 39.6292C310.576 40.1531 308.635 40.6069 306.469 40.9697C308.182 40.4388 310.119 39.9989 312.287 39.6292Z" fill="black"/>
<path d="M331.553 56.1723C332.5 54.4022 333.629 52.6107 334.942 50.8076C333.996 52.581 332.866 54.3659 331.553 56.1723Z" fill="black"/>
<path d="M322.364 64.9718C323.474 63.6795 324.77 62.3875 326.257 61.1116C325.148 62.4091 323.849 63.6906 322.364 64.9718Z" fill="black"/>
<path d="M288.08 69.4822C288.568 70.8222 289.011 72.3786 289.314 74.0802C288.794 72.7165 288.414 71.2075 288.08 69.4822Z" fill="black"/>
<path d="M302.55 41.3958C301.363 41.8768 299.969 42.2564 298.44 42.5012C299.651 42.009 300.997 41.6517 302.55 41.3958Z" fill="black"/>
<path d="M284.453 59.0779C285.058 60.152 285.604 61.4144 286.082 62.8726C285.474 61.8009 284.934 60.5335 284.453 59.0779Z" fill="black"/>
<path d="M328.551 39.4891C327.813 39.6227 326.923 39.6055 325.949 39.435C326.709 39.3007 327.555 39.3195 328.551 39.4891Z" fill="black"/>
<path d="M305.406 77.829C305.937 77.1783 306.643 76.5581 307.527 76.0027C306.997 76.6648 306.289 77.2622 305.406 77.829Z" fill="black"/>
<path d="M291.906 86.7068C292.349 86.1951 292.976 85.6733 293.793 85.1594C293.352 85.6771 292.721 86.1868 291.906 86.7068Z" fill="black"/>
<path d="M309.813 74.7144C310.125 74.2154 310.617 73.728 311.293 73.2698C310.983 73.7746 310.488 74.2503 309.813 74.7144Z" fill="black"/>
<path d="M316.652 39.2747C316.294 39.5018 315.822 39.6291 315.244 39.638C315.605 39.4047 316.071 39.2898 316.652 39.2747Z" fill="black"/>
<path d="M336.12 48.7832C336.036 48.2548 336.139 47.6726 336.409 47.0125C336.487 47.5328 336.397 48.1311 336.12 48.7832Z" fill="black"/>
<path d="M320.102 67.0031C320.364 66.4864 320.797 65.9658 321.417 65.4758C321.16 66.0041 320.717 66.5016 320.102 67.0031Z" fill="black"/>
<path d="M290.213 87.7087C290.476 87.342 290.916 87.0064 291.536 86.697C291.274 87.0621 290.832 87.4009 290.213 87.7087Z" fill="black"/>
<path d="M335.118 42.0607C334.594 42.0175 334.08 41.7944 333.546 41.3953C334.06 41.4398 334.593 41.6602 335.118 42.0607Z" fill="black"/>
<path d="M333.445 40.9935C332.977 40.9915 332.482 40.8124 331.92 40.4861C332.374 40.498 332.896 40.6572 333.445 40.9935Z" fill="black"/>
<path d="M308.211 75.855C308.436 75.4437 308.838 75.0555 309.423 74.6946C309.2 75.1073 308.794 75.4926 308.211 75.855Z" fill="black"/>
<path d="M296.207 83.9213C296.456 83.5493 296.882 83.1932 297.49 82.8699C297.242 83.2474 296.813 83.5923 296.207 83.9213Z" fill="black"/>
<path d="M301.095 80.6619C301.34 80.2802 301.76 79.9306 302.356 79.5984C302.112 79.9751 301.69 80.3345 301.095 80.6619Z" fill="black"/>
<path d="M314.168 71.4711C314.384 71.0687 314.775 70.6915 315.343 70.3313C315.127 70.731 314.735 71.1137 314.168 71.4711Z" fill="black"/>
<path d="M302.739 79.5875C302.983 79.2214 303.403 78.8525 304.007 78.5159C303.766 78.8936 303.341 79.2391 302.739 79.5875Z" fill="black"/>
<path d="M294.538 84.9584C294.698 84.6316 295.024 84.3515 295.522 84.115C295.363 84.4408 295.034 84.723 294.538 84.9584Z" fill="black"/>
<path d="M316.354 69.8553C316.473 69.5014 316.764 69.1675 317.234 68.8682C317.117 69.2269 316.822 69.551 316.354 69.8553Z" fill="black"/>
<path d="M299.479 81.7878C299.602 81.4379 299.9 81.1214 300.375 80.833C300.253 81.1811 299.953 81.5011 299.479 81.7878Z" fill="black"/>
<path d="M318.532 68.2285C318.651 67.8736 318.942 67.5304 319.413 67.2324C319.297 67.5985 319 67.9194 318.532 68.2285Z" fill="black"/>
<path d="M288.534 88.7028C288.696 88.3735 289.022 88.1103 289.512 87.887C289.35 88.2075 289.024 88.4882 288.534 88.7028Z" fill="black"/>
<path d="M327.226 60.605C327.311 60.2378 327.571 59.8876 328.008 59.5527C327.923 59.9195 327.662 60.2707 327.226 60.605Z" fill="black"/>
<path d="M329.427 58.4554C329.475 58.0803 329.701 57.7105 330.102 57.3396C330.053 57.7126 329.829 58.0866 329.427 58.4554Z" fill="black"/>
<path d="M311.976 73.0735C312.104 72.7178 312.402 72.3887 312.878 72.1096C312.753 72.4732 312.449 72.7866 311.976 73.0735Z" fill="black"/>
<path d="M200.621 83.2488C193.862 78.5408 193.888 78.582 187.217 82.8551C186.254 83.4724 184.896 83.474 183.72 83.7606C183.45 82.62 182.94 81.4775 182.948 80.3391C183.009 72.394 186.215 65.6444 191.254 59.7179C193.694 56.8488 195.566 56.8843 197.867 59.9118C202.722 66.301 204.947 73.6393 204.806 81.6343C204.753 84.6227 203.497 85.0693 200.621 83.2488Z" fill="black"/>
<circle cx="309" cy="170" r="20" fill="black"/>
</svg>
